<?xml version="1.0" standalone="no"?>
<!DOCTYPE svg PUBLIC "-//W3C//DTD SVG 20010904//EN"
 "http://www.w3.org/TR/2001/REC-SVG-20010904/DTD/svg10.dtd">
<svg version="1.0" xmlns="http://www.w3.org/2000/svg"
 width="1000.000000pt" height="1000.000000pt" viewBox="0 0 1000.000000 1000.000000"
 preserveAspectRatio="xMidYMid meet">

<g transform="translate(0.000000,1000.000000) scale(0.100000,-0.100000)"
fill="#000000" stroke="none">
<path d="M0 5000 l0 -5000 5000 0 5000 0 0 5000 0 5000 -5000 0 -5000 0 0
-5000z m4678 4017 c2 -12 -3 -17 -17 -17 -15 0 -21 6 -21 21 0 25 33 22 38 -4z
m-220 -60 c2 -12 -3 -17 -17 -17 -15 0 -21 6 -21 21 0 25 33 22 38 -4z m-63
-52 c0 -24 -5 -31 -24 -33 -32 -5 -54 23 -40 50 7 13 19 18 37 16 23 -2 27 -8
27 -33z m125 -110 c19 -23 8 -50 -20 -50 -19 0 -26 6 -28 24 -5 35 26 53 48
26z m-122 -99 c2 -43 -1 -63 -13 -76 -9 -10 -17 -38 -18 -62 -2 -39 -4 -43
-27 -41 -14 1 -41 -3 -62 -9 -48 -14 -82 -5 -96 27 -26 57 -8 85 61 94 33 5
42 11 48 33 11 42 61 99 84 96 17 -3 20 -12 23 -62z m147 14 c0 -8 -8 -16 -17
-18 -13 -2 -18 3 -18 18 0 15 5 20 18 18 9 -2 17 -10 17 -18z m-307 -47 c-2
-10 -10 -18 -18 -18 -8 0 -16 8 -18 18 -2 12 3 17 18 17 15 0 20 -5 18 -17z
m360 -11 c3 -18 -1 -22 -22 -22 -19 0 -26 5 -26 18 0 39 43 43 48 4z m-90 -64
c7 -7 12 -24 12 -38 0 -31 -17 -50 -45 -50 -28 0 -45 19 -45 50 0 31 17 50 45
50 12 0 26 -5 33 -12z m-450 -29 c3 -28 -16 -43 -43 -33 -15 6 -21 45 -8 58
16 16 48 1 51 -25z m547 -99 c1 -19 9 -53 19 -75 21 -45 17 -101 -9 -141 -20
-31 -73 -64 -102 -64 -16 0 -23 -6 -23 -20 0 -13 -7 -20 -20 -20 -15 0 -20 7
-20 24 0 16 -7 27 -20 31 -11 3 -32 22 -47 42 -70 92 -3 226 114 226 36 0 51
5 61 19 22 30 47 18 47 -22z m-523 -7 c19 -17 25 -68 8 -78 -15 -10 -12 -46 7
-67 22 -25 21 -77 -2 -94 -25 -19 -70 -18 -85 2 -21 25 -16 75 9 95 24 19 21
34 -11 57 -37 27 -11 102 35 102 11 0 29 -7 39 -17z m626 -56 c2 -12 -3 -17
-17 -17 -15 0 -21 6 -21 21 0 25 33 22 38 -4z m-790 -63 c4 -29 -23 -51 -43
-34 -16 13 -20 42 -8 54 14 14 48 1 51 -20z m350 -28 c4 -21 -14 -37 -35 -29
-14 5 -18 35 -6 47 12 12 38 1 41 -18z m-326 -73 c24 -21 23 -58 -2 -83 -24
-24 -38 -25 -68 -4 -26 18 -29 60 -5 86 20 22 51 23 75 1z m346 -11 c3 -18 -1
-22 -22 -22 -19 0 -26 5 -26 18 0 39 43 43 48 4z m420 -5 c2 -12 -3 -17 -17
-17 -15 0 -21 6 -21 21 0 25 33 22 38 -4z m-124 -103 c9 -8 16 -29 16 -45 0
-23 -7 -34 -30 -47 -27 -15 -29 -21 -24 -52 4 -19 13 -39 20 -43 8 -4 14 -15
14 -23 0 -11 -9 -14 -32 -12 -31 3 -33 1 -39 -37 -4 -22 -2 -60 3 -85 6 -25
11 -62 11 -82 1 -27 6 -38 20 -42 14 -3 18 -12 15 -33 -4 -39 -43 -45 -59 -9
-7 14 -21 26 -32 28 -11 2 -29 15 -40 30 -18 24 -21 42 -20 135 0 171 5 197
44 220 20 12 29 25 29 42 0 54 69 90 104 55z m-456 -42 c3 -18 -1 -22 -22 -22
-19 0 -26 5 -26 18 0 39 43 43 48 4z m-288 -37 c28 -10 57 -14 78 -10 42 8 72
-16 72 -56 0 -38 -41 -66 -73 -52 -12 6 -31 7 -42 2 -11 -4 -40 -5 -64 -2 -42
5 -44 5 -38 -18 32 -140 31 -133 11 -175 -23 -47 -76 -84 -120 -84 -33 0 -45
-12 -24 -25 21 -13 11 -70 -17 -96 -16 -15 -35 -37 -44 -49 -12 -19 -26 -24
-72 -26 -50 -3 -57 -1 -57 15 0 11 7 21 15 25 8 3 15 14 15 24 0 10 12 29 26
43 14 13 32 36 40 51 8 15 24 30 36 34 l22 7 -22 18 c-46 36 -92 101 -92 128
0 21 27 55 124 154 137 141 115 132 226 92z m305 -30 c0 -13 -8 -21 -22 -23
-19 -3 -23 1 -23 23 0 22 4 26 23 23 14 -2 22 -10 22 -23z m240 -185 c0 -8 -8
-16 -17 -18 -13 -2 -18 3 -18 18 0 15 5 20 18 18 9 -2 17 -10 17 -18z m311
-135 c8 -20 -13 -45 -32 -38 -14 5 -19 34 -7 46 11 12 33 7 39 -8z m-1276 -76
c0 -25 -33 -22 -38 4 -2 12 3 17 17 17 15 0 21 -6 21 -21z m378 -3 c2 -10 -2
-22 -9 -26 -20 -13 -39 0 -39 27 0 20 4 24 22 21 13 -2 24 -11 26 -22z m897
-21 c0 -13 -8 -21 -22 -23 -17 -3 -23 2 -23 16 0 10 3 22 7 26 13 13 38 1 38
-19z m-1262 -36 c14 -22 2 -49 -22 -49 -26 0 -42 29 -29 53 11 21 36 19 51 -4z
m1283 -34 c8 -20 -13 -45 -32 -38 -14 5 -19 34 -7 46 11 12 33 7 39 -8z
m-1378 -57 c19 -19 15 -66 -7 -77 -22 -12 -91 -3 -97 14 -7 18 47 75 71 75 12
0 26 -5 33 -12z m1249 -8 c86 -52 81 -200 -7 -233 -48 -18 -35 -67 29 -111 27
-19 46 -42 57 -72 13 -34 22 -44 43 -46 18 -2 27 -10 29 -25 3 -20 -1 -23 -30
-23 -27 0 -37 -7 -55 -35 -28 -43 -29 -58 -2 -94 23 -32 35 -96 24 -138 -3
-15 -29 -49 -56 -74 l-50 -46 25 -39 c14 -22 34 -51 45 -65 33 -43 38 -67 39
-196 1 -110 -1 -125 -21 -155 -13 -18 -35 -39 -50 -46 -15 -7 -34 -24 -43 -37
-8 -12 -24 -25 -34 -28 -24 -6 -70 28 -70 52 0 10 -11 28 -25 41 -35 33 -46
82 -40 175 9 132 15 165 34 183 10 9 21 25 24 35 5 14 1 17 -24 17 -37 0 -79
39 -79 74 0 14 13 40 29 58 26 30 28 38 24 85 -5 43 -1 61 20 101 l25 48 -23
38 c-13 22 -26 60 -30 87 -6 40 -3 52 16 78 16 22 23 47 25 91 2 54 0 62 -21
76 -25 16 -40 46 -53 110 -11 48 -11 46 46 97 37 33 48 37 95 37 34 0 63 -7
84 -20z m-1077 -90 c0 -11 -6 -20 -14 -20 -18 0 -29 16 -21 30 11 18 35 11 35
-10z m-264 -27 c18 -16 34 -35 34 -44 0 -31 41 -108 60 -114 27 -8 27 -45 0
-45 -11 0 -26 -12 -34 -27 -8 -16 -26 -39 -40 -52 -14 -14 -26 -31 -26 -40 0
-23 -41 -61 -65 -61 -25 0 -49 23 -63 61 -9 22 -15 25 -45 21 -28 -3 -41 1
-61 22 -36 35 -35 80 2 114 16 15 35 39 43 54 25 46 117 138 139 138 12 0 37
-12 56 -27z m189 -218 c0 -13 -8 -21 -22 -23 -17 -3 -23 2 -23 16 0 10 3 22 7
26 13 13 38 1 38 -19z m985 -5 c0 -13 -7 -20 -20 -20 -13 0 -20 7 -20 20 0 13
7 20 20 20 13 0 20 -7 20 -20z m328 -53 c2 -12 -3 -17 -17 -17 -15 0 -21 6
-21 21 0 25 33 22 38 -4z m-1678 -69 c11 -12 20 -27 20 -34 0 -18 -22 -64 -30
-64 -4 0 -13 -14 -20 -30 -14 -33 -37 -50 -69 -50 -13 0 -26 -11 -36 -29 -8
-16 -24 -32 -35 -36 -11 -4 -26 -18 -34 -33 -12 -24 -66 -72 -80 -72 -11 0
-36 60 -36 85 0 15 11 36 24 48 14 13 28 35 31 50 7 27 48 57 77 57 8 0 19 14
25 30 8 20 18 30 32 30 14 0 25 9 31 24 18 47 67 59 100 24z m-351 -265 c13
-24 -13 -53 -40 -46 -18 5 -27 42 -12 56 12 13 42 7 52 -10z m411 -34 c0 -25
-33 -22 -38 4 -2 12 3 17 17 17 15 0 21 -6 21 -21z m270 0 c0 -25 -33 -22 -38
4 -2 12 3 17 17 17 15 0 21 -6 21 -21z m-357 -41 c9 -11 17 -31 17 -43 0 -20
5 -23 36 -22 46 1 79 -33 69 -72 -13 -54 -71 -68 -107 -26 -12 14 -27 25 -34
25 -24 0 -83 45 -95 73 -31 73 61 126 114 65z m437 18 c0 -8 -5 -18 -11 -22
-14 -8 -33 11 -25 25 10 16 36 13 36 -3z m267 -12 c3 -10 -4 -26 -20 -42 -22
-21 -28 -23 -41 -12 -23 18 -19 49 7 60 33 13 47 12 54 -6z m-199 -18 c6 -27
-18 -66 -40 -66 -14 0 -18 8 -18 38 0 21 3 42 7 46 13 13 48 1 51 -18z m720
-7 c3 -28 -16 -43 -43 -33 -15 6 -21 45 -8 58 16 16 48 1 51 -25z m-1358 0 c0
-25 -33 -22 -38 4 -2 12 3 17 17 17 15 0 21 -6 21 -21z m270 1 c0 -13 -7 -20
-20 -20 -13 0 -20 7 -20 20 0 13 7 20 20 20 13 0 20 -7 20 -20z m808 -23 c32
-34 54 -105 47 -150 -8 -43 -44 -91 -87 -113 -25 -13 -38 -14 -78 -4 -27 6
-66 11 -87 10 -72 -4 -73 -3 -73 37 0 43 58 168 93 201 23 22 79 39 133 41 20
1 38 -7 52 -22z m-1233 -11 c12 -18 15 -36 10 -70 -6 -38 -2 -54 26 -111 31
-63 32 -69 20 -112 -6 -25 -23 -59 -36 -75 -14 -16 -29 -47 -35 -70 -6 -22
-29 -59 -50 -82 -37 -39 -41 -41 -100 -41 -60 0 -63 -2 -91 -39 -16 -22 -29
-44 -29 -49 0 -19 -33 -47 -56 -47 -17 0 -24 -7 -29 -30 -4 -16 -16 -36 -27
-44 -20 -14 -20 -15 6 -79 31 -78 32 -87 7 -157 -17 -46 -24 -55 -42 -52 -12
1 -27 -2 -33 -7 -6 -4 -23 -11 -38 -15 -15 -3 -30 -15 -33 -26 -8 -26 -50 -36
-81 -20 -19 11 -32 11 -61 2 -78 -24 -115 51 -53 106 17 15 30 31 30 37 0 7
11 22 25 35 14 13 25 34 25 46 0 34 47 83 107 109 50 22 53 26 53 59 0 28 7
40 30 58 17 12 30 30 30 41 0 30 58 124 89 147 25 17 29 26 29 69 0 50 23 103
57 131 8 7 24 32 35 57 10 24 33 60 50 81 16 20 30 43 30 51 0 15 34 75 58
104 22 25 59 21 77 -7z m505 10 c0 -8 -5 -18 -11 -22 -14 -8 -33 11 -25 25 10
16 36 13 36 -3z m182 -3 c22 -20 24 -66 2 -83 -26 -22 -106 -30 -132 -13 -39
24 -26 63 28 90 55 27 78 28 102 6z m1296 -91 c3 -18 -1 -22 -22 -22 -19 0
-26 5 -26 18 0 39 43 43 48 4z m-1813 -57 c0 -13 -8 -21 -22 -23 -17 -3 -23 2
-23 16 0 10 3 22 7 26 13 13 38 1 38 -19z m1429 -10 c19 -25 20 -46 2 -70 -12
-16 -30 -19 -134 -22 -120 -3 -120 -3 -141 23 -26 33 -26 49 -3 72 17 17 35
19 140 18 108 -1 123 -4 136 -21z m396 -15 c0 -13 -7 -20 -20 -20 -13 0 -20 7
-20 20 0 13 7 20 20 20 13 0 20 -7 20 -20z m-1750 -51 c0 -10 -6 -19 -14 -19
-7 0 -28 -3 -45 -6 -26 -6 -31 -4 -31 13 0 27 5 31 50 31 33 1 40 -3 40 -19z
m270 1 c0 -13 -7 -20 -20 -20 -13 0 -20 7 -20 20 0 13 7 20 20 20 13 0 20 -7
20 -20z m378 -2 c4 -20 -31 -58 -53 -58 -8 0 -15 9 -15 20 0 11 4 20 9 20 5 0
11 9 14 21 7 25 40 23 45 -3z m-298 -28 c0 -11 -6 -20 -14 -20 -18 0 -29 16
-21 30 11 18 35 11 35 -10z m1388 -378 c3 -18 -1 -22 -22 -22 -19 0 -26 5 -26
18 0 39 43 43 48 4z m-138 -30 c98 -49 107 -188 16 -248 -21 -13 -25 -21 -20
-43 9 -34 11 -36 29 -21 8 7 22 10 30 6 16 -6 21 -46 5 -46 -5 0 -13 -15 -18
-32 -5 -19 -19 -39 -34 -47 -23 -13 -29 -13 -53 3 -22 14 -26 24 -24 54 4 67
-9 95 -54 117 -54 26 -75 64 -79 144 -3 57 0 66 17 76 11 6 36 21 55 33 42 26
83 28 130 4z m-2035 -257 c0 -13 -8 -21 -22 -23 -17 -3 -23 2 -23 16 0 10 3
22 7 26 13 13 38 1 38 -19z m1977 -215 c12 -17 31 -30 43 -30 31 0 57 -33 53
-67 -2 -20 -12 -33 -38 -45 -46 -23 -52 -46 -29 -98 23 -51 24 -69 3 -98 -10
-15 -25 -22 -47 -22 -55 0 -71 22 -81 113 -7 51 -4 63 19 104 l26 47 -25 19
c-30 22 -34 61 -9 89 24 27 59 22 85 -12z m-2397 -55 c0 -35 -31 -47 -51 -20
-18 25 0 57 29 53 17 -2 22 -10 22 -33z m210 -10 c0 -13 -8 -21 -22 -23 -19
-3 -23 1 -23 23 0 22 4 26 23 23 14 -2 22 -10 22 -23z m2073 -2 c-2 -10 -10
-18 -18 -18 -8 0 -16 8 -18 18 -2 12 3 17 18 17 15 0 20 -5 18 -17z m-2133
-68 c0 -13 -8 -21 -22 -23 -19 -3 -23 1 -23 23 0 22 4 26 23 23 14 -2 22 -10
22 -23z m-237 3 c21 -21 14 -66 -13 -84 -50 -33 -95 19 -61 71 18 27 54 33 74
13z m4630 -40 c2 -20 -2 -28 -19 -33 -30 -10 -53 19 -38 47 15 29 53 20 57
-14z m-1950 -46 c3 -18 -1 -22 -22 -22 -19 0 -26 5 -26 18 0 39 43 43 48 4z
m-2510 -5 c2 -12 -3 -17 -17 -17 -15 0 -21 6 -21 21 0 25 33 22 38 -4z m4512
-28 c9 -16 8 -25 -2 -41 -12 -18 -12 -26 4 -57 30 -59 20 -112 -33 -167 -24
-25 -30 -40 -32 -85 -2 -46 -5 -54 -22 -54 -15 0 -20 7 -21 30 -1 46 -14 75
-33 75 -10 0 -40 11 -66 25 -34 19 -56 24 -77 20 -40 -9 -78 17 -78 54 0 32
24 58 59 63 30 4 41 28 13 28 -43 0 -57 62 -15 68 13 2 27 -5 36 -18 14 -20
14 -20 52 10 31 25 47 30 89 30 40 0 54 4 64 20 16 26 48 26 62 -1z m-4761
-28 c22 -14 5 -79 -24 -93 -20 -9 -29 -8 -45 7 -23 20 -26 57 -7 73 10 8 29
15 57 21 3 0 11 -3 19 -8z m-191 -92 c4 -30 -22 -46 -44 -28 -15 12 -19 41 -7
53 16 16 48 1 51 -25z m2950 -27 c3 -18 -1 -22 -22 -22 -19 0 -26 5 -26 18 0
39 43 43 48 4z m-2773 -17 c30 -30 32 -58 4 -86 -31 -31 -68 -22 -101 26 -33
49 -35 65 -5 65 12 0 29 5 37 10 24 15 39 12 65 -15z m4930 -10 c0 -13 -8 -21
-22 -23 -17 -3 -23 2 -23 16 0 10 3 22 7 26 13 13 38 1 38 -19z m-2301 -1 c9
-3 16 -15 16 -26 0 -11 11 -29 26 -40 35 -28 31 -77 -8 -96 -16 -7 -28 -17
-28 -23 0 -23 30 -76 58 -102 63 -57 66 -141 7 -206 -19 -21 -33 -40 -31 -42
2 -2 6 -28 10 -56 l7 -53 -60 0 c-33 0 -63 5 -67 11 -4 8 -9 8 -17 0 -33 -33
-78 9 -51 47 8 12 21 22 28 22 20 0 7 51 -20 76 -42 40 -49 103 -19 177 5 13
2 17 -14 17 -14 0 -21 6 -21 20 0 25 37 27 43 3 5 -23 13 -5 22 50 5 33 12 41
46 56 39 18 42 31 7 31 -27 0 -23 38 5 42 22 3 26 17 13 49 -4 10 0 23 9 33
19 18 18 18 39 10z m171 -54 c0 -8 -8 -16 -17 -18 -13 -2 -18 3 -18 18 0 15 5
20 18 18 9 -2 17 -10 17 -18z m-2885 -66 c34 -40 5 -104 -46 -104 -41 0 -93
87 -67 113 13 14 100 7 113 -9z m4630 8 c0 -32 -34 -113 -51 -123 -19 -10 -20
-12 -4 -29 24 -26 16 -71 -16 -89 -24 -13 -29 -13 -53 2 -32 21 -35 62 -6 92
19 20 19 24 5 52 -19 38 -6 80 27 87 13 3 32 7 43 9 35 8 55 7 55 -1z m-355
-81 c0 -34 -32 -52 -50 -27 -19 25 -2 58 28 54 16 -2 22 -10 22 -27z m130 9
c0 -8 -8 -16 -17 -18 -13 -2 -18 3 -18 18 0 15 5 20 18 18 9 -2 17 -10 17 -18z
m-4574 -1 c11 -6 29 -29 40 -52 11 -23 31 -60 44 -82 29 -47 31 -87 7 -135
-65 -131 -256 -92 -265 55 -2 18 -10 42 -20 53 -21 23 -21 31 -1 53 11 13 25
16 45 12 25 -5 31 -1 46 28 22 40 58 79 73 79 6 0 20 -5 31 -11z m287 -17 c3
-18 -1 -22 -22 -22 -19 0 -26 5 -26 18 0 39 43 43 48 4z m4090 -63 c3 -28 -16
-43 -43 -33 -15 6 -21 45 -8 58 16 16 48 1 51 -25z m-1311 -45 c8 -21 -13 -42
-28 -27 -13 13 -5 43 11 43 6 0 13 -7 17 -16z m1315 -51 c10 -9 18 -27 18 -40
0 -25 -32 -63 -54 -63 -8 0 -16 -7 -20 -15 -3 -8 -17 -20 -30 -27 -55 -24
-101 48 -59 94 9 10 21 18 26 18 5 0 20 11 33 25 27 29 60 32 86 8z m-4164
-57 c4 -21 -14 -37 -35 -29 -14 5 -18 35 -6 47 12 12 38 1 41 -18z m3942 5
c14 -28 -4 -71 -30 -71 -12 0 -25 10 -31 24 -22 48 36 93 61 47z m507 -17 c7
-19 -30 -59 -46 -50 -15 9 -14 39 1 54 17 17 37 15 45 -4z m-578 -38 c18 -22
-4 -58 -32 -54 -37 5 -36 68 1 68 11 0 25 -6 31 -14z m499 -50 c4 -21 -14 -37
-35 -29 -14 5 -18 35 -6 47 12 12 38 1 41 -18z m-479 -61 c17 -16 18 -60 2
-79 -7 -8 -23 -17 -37 -20 -13 -4 -33 -15 -44 -26 -34 -34 -75 -20 -94 34 -6
17 -8 17 -31 -8 -19 -21 -33 -26 -70 -26 -52 0 -56 11 -27 70 12 24 27 38 49
44 17 6 36 20 42 33 18 39 47 42 125 16 39 -13 77 -30 85 -38z m-4041 9 c2
-12 -4 -24 -12 -27 -20 -8 -47 19 -39 39 8 22 47 13 51 -12z m4517 -19 c0 -30
-39 -27 -43 3 -3 20 0 23 20 20 15 -2 23 -10 23 -23z m-70 -50 c0 -13 -8 -21
-22 -23 -19 -3 -23 1 -23 23 0 22 4 26 23 23 14 -2 22 -10 22 -23z m-147 -39
c4 -21 -14 -37 -35 -29 -14 5 -18 35 -6 47 12 12 38 1 41 -18z m-70 -64 c3
-18 -1 -22 -22 -22 -19 0 -26 5 -26 18 0 39 43 43 48 4z m-510 -19 c15 -15 36
-27 47 -28 20 0 35 -35 15 -35 -8 0 -10 -16 -5 -52 7 -65 -13 -112 -64 -145
-106 -71 -245 32 -211 157 12 46 46 77 112 105 70 30 74 30 106 -2z m320 -69
c3 -22 -21 -39 -39 -28 -11 6 -12 38 -2 48 13 13 38 1 41 -20z m-1202 -16 c26
-9 38 -9 58 1 13 7 29 10 35 7 13 -9 14 -38 2 -51 -5 -6 -11 -21 -13 -35 -2
-14 -17 -34 -38 -48 -22 -14 -38 -35 -43 -55 -5 -18 -15 -39 -23 -48 -12 -14
-11 -18 7 -35 17 -15 20 -26 15 -61 -4 -32 -1 -47 14 -66 24 -30 26 -65 5 -73
-8 -4 -35 3 -59 15 l-44 20 1 73 c0 40 5 79 11 87 8 10 4 18 -17 33 -20 14
-27 28 -27 52 0 18 3 36 8 40 4 4 7 29 7 55 0 52 25 101 52 101 9 0 31 -5 49
-12z m579 -38 c0 -18 -6 -26 -23 -28 -13 -2 -25 3 -28 12 -10 26 4 48 28 44
17 -2 23 -10 23 -28z m-57 -56 c4 -29 -23 -51 -43 -34 -16 13 -20 42 -8 54 14
14 48 1 51 -20z m492 6 c0 -13 -7 -20 -20 -20 -13 0 -20 7 -20 20 0 13 7 20
20 20 13 0 20 -7 20 -20z m-483 -106 c3 -8 1 -20 -5 -26 -7 -7 -7 -17 0 -34
16 -34 -7 -83 -44 -96 -28 -10 -28 -11 -12 -29 23 -26 22 -78 -2 -96 -21 -16
-149 -8 -172 10 -27 22 -34 48 -21 79 16 39 45 49 88 32 19 -8 43 -12 53 -8
18 5 18 6 -2 31 -39 50 -12 116 48 116 24 0 32 5 32 19 0 22 28 24 37 2z m289
-65 c10 -16 -41 -63 -60 -56 -23 9 -20 38 4 44 11 3 20 9 20 14 0 13 28 11 36
-2z m-88 -97 c3 -16 -2 -22 -17 -22 -24 0 -35 15 -27 36 9 23 40 13 44 -14z
m-550 -20 c3 -18 -1 -22 -22 -22 -19 0 -26 5 -26 18 0 39 43 43 48 4z m440
-75 c2 -12 -3 -17 -17 -17 -12 0 -21 6 -21 13 0 31 32 34 38 4z m-646 -54 c21
-19 24 -66 4 -82 -14 -12 -102 -22 -123 -14 -25 10 -13 48 24 80 43 36 68 41
95 16z m266 -25 c18 -18 14 -56 -9 -79 -16 -16 -18 -23 -9 -34 21 -25 15 -76
-11 -96 -27 -21 -69 -25 -87 -7 -20 20 -23 2 -5 -30 14 -24 23 -30 40 -26 16
4 25 1 30 -12 4 -11 2 -19 -6 -22 -9 -3 -9 -7 2 -16 8 -6 37 -39 66 -74 54
-67 63 -102 34 -134 -26 -29 -57 -21 -117 27 -49 41 -58 44 -76 33 -11 -7 -23
-23 -26 -35 -6 -24 -33 -30 -50 -13 -8 8 -19 8 -38 0 -38 -14 -50 -13 -77 9
-34 27 -45 145 -20 216 10 28 16 64 14 81 -3 20 2 38 18 58 20 26 26 28 66 22
31 -4 43 -2 43 7 0 24 40 57 70 57 16 0 32 -4 35 -10 3 -5 15 -10 25 -10 16 0
18 4 11 23 -20 54 38 104 77 65z m136 -57 c25 -27 17 -72 -15 -90 -24 -13 -29
-13 -53 2 -17 12 -26 26 -26 44 0 55 59 83 94 44z m-506 -88 c-2 -10 -10 -18
-18 -18 -8 0 -16 8 -18 18 -2 12 3 17 18 17 15 0 20 -5 18 -17z m537 -418 c35
-22 55 -42 55 -54 0 -10 7 -24 15 -31 19 -16 19 -34 1 -49 -11 -9 -17 -8 -29
4 -9 8 -23 15 -31 15 -9 0 -26 10 -38 23 -12 12 -36 27 -53 33 -22 8 -31 18
-33 38 -8 67 31 74 113 21z m-347 -37 c3 -14 -3 -18 -27 -18 -25 0 -31 4 -31
21 0 16 5 20 27 17 17 -2 29 -10 31 -20z m120 -56 c3 -18 -1 -22 -22 -22 -19
0 -26 5 -26 18 0 39 43 43 48 4z m-290 -8 c4 -29 -23 -51 -43 -34 -16 13 -20
42 -8 54 14 14 48 1 51 -20z m177 -4 c17 -18 17 -27 7 -82 -17 -91 -50 -118
-101 -82 -24 17 -24 17 -5 114 13 67 62 91 99 50z m605 -45 c18 -21 8 -48 -20
-55 -22 -5 -25 -12 -28 -53 -3 -38 -7 -47 -22 -47 -29 0 -87 38 -93 61 -13 49
34 92 79 75 11 -4 24 1 36 14 22 24 31 25 48 5z m116 -130 c12 -19 14 -36 9
-74 l-7 -50 34 -3 c25 -2 34 -8 36 -25 2 -12 10 -27 18 -33 8 -7 14 -24 14
-39 0 -25 3 -27 34 -23 72 8 186 -69 186 -127 0 -7 11 -22 25 -33 14 -11 25
-25 25 -32 0 -27 27 -66 53 -77 29 -12 43 -45 34 -79 -4 -15 0 -20 14 -20 23
0 26 -28 4 -36 -8 -4 -21 -1 -29 5 -10 8 -16 8 -26 -4 -32 -39 -122 4 -122 59
0 15 9 41 21 56 11 16 21 34 21 40 0 18 -32 11 -37 -9 -6 -24 -70 -51 -121
-51 -110 0 -176 138 -118 248 13 26 13 27 -16 37 -22 7 -34 20 -42 45 -10 31
-15 35 -47 35 -46 0 -69 19 -69 59 0 17 -7 40 -15 50 -21 28 -19 46 12 78 35
37 86 39 109 3z m-916 -74 c7 -15 6 -23 -6 -35 -18 -18 -17 -18 -38 -10 -16 6
-22 45 -9 57 13 14 43 7 53 -12z m227 4 c3 -9 -1 -23 -9 -33 -9 -9 -18 -30
-22 -45 -8 -32 -55 -57 -106 -57 -20 0 -30 -5 -30 -15 0 -8 -9 -15 -20 -15
-22 0 -29 35 -9 42 9 3 9 9 0 25 -14 27 0 67 28 82 11 6 42 11 70 11 27 0 53
5 56 10 9 15 35 12 42 -5z m978 -15 c0 -8 -8 -16 -17 -18 -13 -2 -18 3 -18 18
0 15 5 20 18 18 9 -2 17 -10 17 -18z m-557 -47 c-2 -10 -10 -18 -18 -18 -8 0
-16 8 -18 18 -2 12 3 17 18 17 15 0 20 -5 18 -17z m-370 -26 c2 -12 -3 -17
-17 -17 -15 0 -21 6 -21 21 0 25 33 22 38 -4z m-220 -169 c7 -7 12 -24 12 -38
0 -47 -42 -66 -74 -34 -32 31 -14 84 29 84 12 0 26 -5 33 -12z m150 -12 c4
-21 -14 -37 -35 -29 -14 5 -18 35 -6 47 12 12 38 1 41 -18z m-100 -103 c19 -3
35 -11 37 -17 2 -6 10 -36 20 -68 19 -64 13 -115 -17 -153 -16 -21 -18 -28 -8
-40 7 -8 22 -15 34 -15 28 0 71 -44 63 -64 -7 -17 -47 -22 -47 -6 0 21 -17 8
-54 -40 -21 -27 -44 -50 -52 -50 -8 0 -14 -4 -14 -10 0 -15 16 -12 30 5 17 20
59 19 82 -2 42 -38 1 -115 -52 -98 -14 4 -28 1 -40 -10 -26 -23 -105 -28 -125
-9 -19 20 -8 42 43 85 38 31 38 33 20 51 -21 21 -23 54 -3 88 24 42 19 58 -20
66 -67 12 -125 104 -110 173 11 53 119 137 160 126 11 -3 35 -9 53 -12z m1517
-133 c0 -8 -8 -16 -17 -18 -13 -2 -18 3 -18 18 0 15 5 20 18 18 9 -2 17 -10
17 -18z m-507 -107 c-2 -10 -10 -18 -18 -18 -8 0 -16 8 -18 18 -2 12 3 17 18
17 15 0 20 -5 18 -17z m347 -13 c14 -15 16 -29 12 -64 -5 -33 -2 -47 9 -57 21
-17 15 -83 -8 -87 -13 -2 -18 3 -18 17 0 17 -6 20 -35 19 -40 -1 -61 13 -70
49 -3 15 -15 33 -26 41 -23 16 -25 59 -2 84 24 26 113 25 138 -2z m99 -46 c26
-10 20 -53 -9 -64 -49 -19 -73 14 -38 52 18 20 23 21 47 12z m-1256 -57 c2
-12 -3 -17 -17 -17 -15 0 -21 6 -21 21 0 25 33 22 38 -4z m-320 -34 c-5 -26
-38 -29 -38 -4 0 15 6 21 21 21 14 0 19 -5 17 -17z m1627 -23 c1 -28 5 -36 22
-38 11 -2 29 -12 39 -23 9 -10 23 -19 30 -19 15 0 37 -39 48 -84 4 -15 20 -39
37 -53 23 -20 29 -32 27 -57 -4 -39 -47 -67 -77 -49 -10 6 -28 9 -39 6 -24 -6
-38 13 -23 31 8 10 6 17 -9 31 -10 9 -31 39 -45 66 -20 38 -23 54 -15 69 16
31 12 41 -15 34 -29 -7 -45 17 -26 40 8 10 9 16 1 21 -11 7 -14 48 -3 59 4 4
16 6 28 4 16 -2 20 -11 20 -38z m225 10 c0 -21 -24 -28 -35 -10 -8 14 3 30 21
30 8 0 14 -9 14 -20z m-422 -167 c-2 -10 -10 -18 -18 -18 -8 0 -16 8 -18 18
-2 12 3 17 18 17 15 0 20 -5 18 -17z m39 -87 c-4 -9 -11 -16 -17 -16 -17 0
-24 31 -9 41 18 11 34 -5 26 -25z m-1319 10 c27 -1 38 -6 40 -18 2 -11 -3 -18
-11 -18 -8 0 -17 -14 -21 -32 -3 -17 -11 -37 -17 -45 -13 -15 -67 -17 -89 -3
-9 5 -19 5 -27 -1 -15 -13 -49 -3 -57 17 -7 17 30 57 45 48 6 -3 13 4 16 15 6
25 50 51 71 43 8 -3 30 -5 50 -6z m150 -74 c3 -18 -1 -22 -22 -22 -19 0 -26 5
-26 18 0 39 43 43 48 4z m1675 -54 c9 -11 17 -28 17 -38 0 -12 6 -17 18 -14
16 5 26 -1 79 -43 33 -27 38 -64 13 -96 -28 -35 -72 -36 -106 -2 -20 21 -29
23 -45 15 -24 -13 -56 -5 -67 18 -5 9 -14 42 -22 73 -10 43 -10 61 -1 78 24
43 80 48 114 9z m-1735 -36 c3 -18 -1 -22 -22 -22 -19 0 -26 5 -26 18 0 39 43
43 48 4z m-67 -139 c11 -23 19 -29 27 -21 16 16 42 2 42 -22 0 -15 -7 -20 -24
-20 -13 0 -26 5 -28 12 -3 8 -12 4 -26 -10 -42 -42 -105 -20 -105 38 0 66 84
83 114 23z m2044 -68 c53 -52 13 -125 -68 -125 -55 0 -80 24 -75 71 2 25 12
39 37 56 44 30 76 29 106 -2z m-327 -82 c-2 -10 -10 -18 -18 -18 -8 0 -16 8
-18 18 -2 12 3 17 18 17 15 0 20 -5 18 -17z m-1728 -8 c20 -24 15 -67 -10 -87
-31 -25 -55 -23 -79 9 -21 26 -21 53 1 81 14 17 73 15 88 -3z m-165 -95 c0 -8
-8 -16 -17 -18 -13 -2 -18 3 -18 18 0 15 5 20 18 18 9 -2 17 -10 17 -18z m159
-47 c22 -8 45 -22 52 -31 22 -30 38 -105 40 -187 1 -44 5 -118 9 -165 5 -73 4
-90 -13 -120 -29 -53 -75 -80 -136 -80 -123 0 -183 110 -146 265 7 28 13 86
14 130 1 75 4 84 38 137 41 62 65 81 88 71 8 -3 33 -12 54 -20z m2224 -3 c43
-26 76 -99 69 -147 -12 -72 -71 -123 -142 -123 -124 0 -187 157 -98 242 53 51
117 61 171 28z m-181 -256 c8 -21 -13 -42 -28 -27 -13 13 -5 43 11 43 6 0 13
-7 17 -16z"/>
<path d="M4760 3360 c0 -5 5 -10 11 -10 5 0 7 5 4 10 -3 6 -8 10 -11 10 -2 0
-4 -4 -4 -10z"/>
</g>
</svg>
